<svg width="60" height="76" viewBox="0 0 60 76" fill="none" xmlns="http://www.w3.org/2000/svg">
<path d="M3.392 75.472V64.342L32.012 37.312C34.2733 35.2627 35.934 33.4253 36.994 31.8C38.054 30.1747 38.7607 28.6907 39.114 27.348C39.538 26.0053 39.75 24.7687 39.75 23.638C39.75 20.67 38.7253 18.4087 36.676 16.854C34.6973 15.2287 31.7647 14.416 27.878 14.416C24.7687 14.416 21.8713 15.0167 19.186 16.218C16.5713 17.4193 14.3453 19.292 12.508 21.836L0 13.78C2.82667 9.54 6.784 6.18333 11.872 3.71C16.96 1.23667 22.8253 0 29.468 0C34.98 0 39.7853 0.918665 43.884 2.756C48.0533 4.52266 51.2687 7.03133 53.53 10.282C55.862 13.5327 57.028 17.4193 57.028 21.942C57.028 24.3447 56.71 26.7473 56.074 29.15C55.5087 31.482 54.3073 33.9553 52.47 36.57C50.7033 39.1847 48.0887 42.1173 44.626 45.368L20.882 67.734L17.596 61.48H59.466V75.472H3.392Z" fill="#3F99D6"/>
</svg>
