<svg width="387" height="77" viewBox="0 0 387 77" fill="none" xmlns="http://www.w3.org/2000/svg">
<path d="M345.607 75.4715V11.3415L349.529 15.2635H321.969V1.27148H386.311V15.2635H358.751L362.567 11.3415V75.4715H345.607Z" fill="white"/>
<path d="M274.072 31.1635H309.794V44.5195H274.072V31.1635ZM275.344 61.6915H315.73V75.4715H258.278V1.27148H314.352V15.0515H275.344V61.6915Z" fill="white"/>
<path d="M174.344 76.6375C173.072 76.6375 171.73 76.5315 170.316 76.3195C168.974 76.1075 167.49 75.8248 165.864 75.4715L166.924 60.9495C167.914 61.2322 168.938 61.3735 169.998 61.3735C172.896 61.3735 175.157 60.2075 176.782 57.8755C178.408 55.4728 179.574 52.0455 180.28 47.5935C180.987 43.1415 181.446 37.7355 181.658 31.3755L182.718 1.27148H239.746V75.4715H222.786V11.3415L226.708 15.2635H193.954L197.452 11.1295L196.816 30.7395C196.604 38.0182 196.11 44.4842 195.332 50.1375C194.555 55.7908 193.354 60.5962 191.728 64.5535C190.103 68.5108 187.877 71.5142 185.05 73.5635C182.224 75.6128 178.655 76.6375 174.344 76.6375Z" fill="white"/>
<path d="M98.3518 76.744C92.2744 76.744 86.8331 75.26 82.0278 72.292C77.2224 69.2533 73.4418 64.872 70.6858 59.148C67.9298 53.424 66.5518 46.4987 66.5518 38.372C66.5518 30.2453 67.9298 23.32 70.6858 17.596C73.4418 11.872 77.2224 7.526 82.0278 4.558C86.8331 1.51933 92.2744 0 98.3518 0C104.5 0 109.941 1.51933 114.676 4.558C119.481 7.526 123.262 11.872 126.018 17.596C128.774 23.32 130.152 30.2453 130.152 38.372C130.152 46.4987 128.774 53.424 126.018 59.148C123.262 64.872 119.481 69.2533 114.676 72.292C109.941 75.26 104.5 76.744 98.3518 76.744ZM98.3518 62.222C101.249 62.222 103.758 61.4093 105.878 59.784C108.068 58.1587 109.764 55.5793 110.966 52.046C112.238 48.5127 112.874 43.9547 112.874 38.372C112.874 32.7893 112.238 28.2313 110.966 24.698C109.764 21.1647 108.068 18.5853 105.878 16.96C103.758 15.3347 101.249 14.522 98.3518 14.522C95.5251 14.522 93.0164 15.3347 90.8258 16.96C88.7058 18.5853 87.0098 21.1647 85.7378 24.698C84.5364 28.2313 83.9358 32.7893 83.9358 38.372C83.9358 43.9547 84.5364 48.5127 85.7378 52.046C87.0098 55.5793 88.7058 58.1587 90.8258 59.784C93.0164 61.4093 95.5251 62.222 98.3518 62.222Z" fill="white"/>
<path d="M3.392 75.472V64.342L32.012 37.312C34.2733 35.2627 35.934 33.4253 36.994 31.8C38.054 30.1747 38.7607 28.6907 39.114 27.348C39.538 26.0053 39.75 24.7687 39.75 23.638C39.75 20.67 38.7253 18.4087 36.676 16.854C34.6973 15.2287 31.7647 14.416 27.878 14.416C24.7687 14.416 21.8713 15.0167 19.186 16.218C16.5713 17.4193 14.3453 19.292 12.508 21.836L0 13.78C2.82667 9.54 6.784 6.18333 11.872 3.71C16.96 1.23667 22.8253 0 29.468 0C34.98 0 39.7853 0.918665 43.884 2.756C48.0533 4.52267 51.2687 7.03133 53.53 10.282C55.862 13.5327 57.028 17.4193 57.028 21.942C57.028 24.3447 56.71 26.7473 56.074 29.15C55.5087 31.482 54.3073 33.9553 52.47 36.57C50.7033 39.1847 48.0887 42.1173 44.626 45.368L20.882 67.734L17.596 61.48H59.466V75.472H3.392Z" fill="white"/>
</svg>
